<mxfile host="Electron" modified="2023-06-22T07:58:27.350Z" agent="Mozilla/5.0 (Windows NT 10.0; Win64; x64) AppleWebKit/537.36 (KHTML, like Gecko) draw.io/21.2.1 Chrome/112.0.5615.87 Electron/24.1.2 Safari/537.36" etag="-cOAAeKBt9qi-t4CXV_K" version="21.2.1" type="device">
  <diagram id="C5RBs43oDa-KdzZeNtuy" name="Page-1">
    <mxGraphModel dx="1036" dy="614" grid="1" gridSize="10" guides="1" tooltips="1" connect="1" arrows="1" fold="1" page="1" pageScale="1" pageWidth="827" pageHeight="1169" math="0" shadow="0">
      <root>
        <mxCell id="WIyWlLk6GJQsqaUBKTNV-0" />
        <mxCell id="WIyWlLk6GJQsqaUBKTNV-1" parent="WIyWlLk6GJQsqaUBKTNV-0" />
        <mxCell id="Z-CgQT5r3qoJDd_OZ7XW-6" style="edgeStyle=orthogonalEdgeStyle;rounded=0;orthogonalLoop=1;jettySize=auto;html=1;exitX=0.5;exitY=1;exitDx=0;exitDy=0;" parent="WIyWlLk6GJQsqaUBKTNV-1" source="Z-CgQT5r3qoJDd_OZ7XW-0" target="Z-CgQT5r3qoJDd_OZ7XW-5" edge="1">
          <mxGeometry relative="1" as="geometry" />
        </mxCell>
        <mxCell id="Z-CgQT5r3qoJDd_OZ7XW-0" value="&lt;span style=&quot;font-size: 14px;&quot;&gt;Start Push Button pressed&lt;/span&gt;" style="rounded=0;whiteSpace=wrap;html=1;" parent="WIyWlLk6GJQsqaUBKTNV-1" vertex="1">
          <mxGeometry x="65" y="135" width="130" height="100" as="geometry" />
        </mxCell>
        <mxCell id="Z-CgQT5r3qoJDd_OZ7XW-4" style="edgeStyle=orthogonalEdgeStyle;rounded=0;orthogonalLoop=1;jettySize=auto;html=1;exitX=0.5;exitY=1;exitDx=0;exitDy=0;" parent="WIyWlLk6GJQsqaUBKTNV-1" source="Z-CgQT5r3qoJDd_OZ7XW-3" target="Z-CgQT5r3qoJDd_OZ7XW-0" edge="1">
          <mxGeometry relative="1" as="geometry" />
        </mxCell>
        <mxCell id="Z-CgQT5r3qoJDd_OZ7XW-3" value="&lt;font style=&quot;font-size: 14px;&quot;&gt;Machine is turned on&lt;/font&gt;" style="rounded=1;whiteSpace=wrap;html=1;" parent="WIyWlLk6GJQsqaUBKTNV-1" vertex="1">
          <mxGeometry x="60" y="40" width="140" height="60" as="geometry" />
        </mxCell>
        <mxCell id="6H8Deu-p3a4hhGgw8gGk-5" style="edgeStyle=orthogonalEdgeStyle;rounded=0;orthogonalLoop=1;jettySize=auto;html=1;exitX=1;exitY=0.5;exitDx=0;exitDy=0;entryX=0;entryY=0.5;entryDx=0;entryDy=0;" edge="1" parent="WIyWlLk6GJQsqaUBKTNV-1" source="Z-CgQT5r3qoJDd_OZ7XW-5" target="6H8Deu-p3a4hhGgw8gGk-2">
          <mxGeometry relative="1" as="geometry" />
        </mxCell>
        <mxCell id="Z-CgQT5r3qoJDd_OZ7XW-5" value="&lt;span style=&quot;font-size: 14px;&quot;&gt;Raw tem is spawned at random Color&lt;/span&gt;" style="rounded=0;whiteSpace=wrap;html=1;" parent="WIyWlLk6GJQsqaUBKTNV-1" vertex="1">
          <mxGeometry x="65" y="270" width="130" height="60" as="geometry" />
        </mxCell>
        <mxCell id="6H8Deu-p3a4hhGgw8gGk-6" style="edgeStyle=orthogonalEdgeStyle;rounded=0;orthogonalLoop=1;jettySize=auto;html=1;exitX=0.5;exitY=1;exitDx=0;exitDy=0;" edge="1" parent="WIyWlLk6GJQsqaUBKTNV-1" source="Z-CgQT5r3qoJDd_OZ7XW-7" target="6H8Deu-p3a4hhGgw8gGk-3">
          <mxGeometry relative="1" as="geometry" />
        </mxCell>
        <mxCell id="Z-CgQT5r3qoJDd_OZ7XW-7" value="&lt;span style=&quot;font-size: 14px;&quot;&gt;The Machining Center process Raw Material into processed material&lt;/span&gt;" style="rounded=0;whiteSpace=wrap;html=1;" parent="WIyWlLk6GJQsqaUBKTNV-1" vertex="1">
          <mxGeometry x="260" y="130" width="130" height="100" as="geometry" />
        </mxCell>
        <mxCell id="Z-CgQT5r3qoJDd_OZ7XW-12" style="edgeStyle=orthogonalEdgeStyle;rounded=0;orthogonalLoop=1;jettySize=auto;html=1;exitX=0.5;exitY=1;exitDx=0;exitDy=0;" parent="WIyWlLk6GJQsqaUBKTNV-1" source="Z-CgQT5r3qoJDd_OZ7XW-9" target="Z-CgQT5r3qoJDd_OZ7XW-11" edge="1">
          <mxGeometry relative="1" as="geometry" />
        </mxCell>
        <mxCell id="Z-CgQT5r3qoJDd_OZ7XW-9" value="&lt;span style=&quot;font-size: 14px;&quot;&gt;Processed item enter the Vision Sensor&lt;/span&gt;" style="rounded=0;whiteSpace=wrap;html=1;" parent="WIyWlLk6GJQsqaUBKTNV-1" vertex="1">
          <mxGeometry x="455" y="40" width="130" height="60" as="geometry" />
        </mxCell>
        <mxCell id="6H8Deu-p3a4hhGgw8gGk-0" style="edgeStyle=orthogonalEdgeStyle;rounded=0;orthogonalLoop=1;jettySize=auto;html=1;exitX=0.5;exitY=1;exitDx=0;exitDy=0;entryX=0.5;entryY=0;entryDx=0;entryDy=0;" edge="1" parent="WIyWlLk6GJQsqaUBKTNV-1" source="Z-CgQT5r3qoJDd_OZ7XW-11" target="Z-CgQT5r3qoJDd_OZ7XW-13">
          <mxGeometry relative="1" as="geometry" />
        </mxCell>
        <mxCell id="Z-CgQT5r3qoJDd_OZ7XW-11" value="&lt;font style=&quot;font-size: 14px;&quot;&gt;The Turntable Feed the Object into the designated direction depending on the registered color&lt;/font&gt;" style="rounded=0;whiteSpace=wrap;html=1;" parent="WIyWlLk6GJQsqaUBKTNV-1" vertex="1">
          <mxGeometry x="455" y="130" width="130" height="100" as="geometry" />
        </mxCell>
        <mxCell id="Z-CgQT5r3qoJDd_OZ7XW-13" value="&lt;font style=&quot;font-size: 14px;&quot;&gt;The Object Exit the System and loop the system from the beginning&lt;/font&gt;" style="rounded=1;whiteSpace=wrap;html=1;" parent="WIyWlLk6GJQsqaUBKTNV-1" vertex="1">
          <mxGeometry x="450" y="270" width="140" height="70" as="geometry" />
        </mxCell>
        <mxCell id="6H8Deu-p3a4hhGgw8gGk-7" style="edgeStyle=orthogonalEdgeStyle;rounded=0;orthogonalLoop=1;jettySize=auto;html=1;exitX=0.5;exitY=1;exitDx=0;exitDy=0;entryX=0.5;entryY=0;entryDx=0;entryDy=0;" edge="1" parent="WIyWlLk6GJQsqaUBKTNV-1" source="6H8Deu-p3a4hhGgw8gGk-2" target="Z-CgQT5r3qoJDd_OZ7XW-7">
          <mxGeometry relative="1" as="geometry" />
        </mxCell>
        <mxCell id="6H8Deu-p3a4hhGgw8gGk-2" value="&lt;font style=&quot;font-size: 14px;&quot;&gt;Raw Item delivered into Machining Center&lt;/font&gt;" style="rounded=0;whiteSpace=wrap;html=1;" vertex="1" parent="WIyWlLk6GJQsqaUBKTNV-1">
          <mxGeometry x="265" y="40" width="120" height="60" as="geometry" />
        </mxCell>
        <mxCell id="6H8Deu-p3a4hhGgw8gGk-8" style="edgeStyle=orthogonalEdgeStyle;rounded=0;orthogonalLoop=1;jettySize=auto;html=1;exitX=1;exitY=0.5;exitDx=0;exitDy=0;entryX=0;entryY=0.5;entryDx=0;entryDy=0;" edge="1" parent="WIyWlLk6GJQsqaUBKTNV-1" source="6H8Deu-p3a4hhGgw8gGk-3" target="Z-CgQT5r3qoJDd_OZ7XW-9">
          <mxGeometry relative="1" as="geometry" />
        </mxCell>
        <mxCell id="6H8Deu-p3a4hhGgw8gGk-3" value="&lt;font style=&quot;font-size: 14px;&quot;&gt;Processed Item exits machining center&lt;/font&gt;" style="rounded=0;whiteSpace=wrap;html=1;" vertex="1" parent="WIyWlLk6GJQsqaUBKTNV-1">
          <mxGeometry x="265" y="270" width="120" height="60" as="geometry" />
        </mxCell>
      </root>
    </mxGraphModel>
  </diagram>
</mxfile>
